<svg xmlns="http://www.w3.org/2000/svg" viewBox="0 0 979.13 290.03"><defs><style>.cls-1{fill:#fff;}</style></defs><g id="Capa_2" data-name="Capa 2"><g id="Capa_1-2" data-name="Capa 1"><path class="cls-1" d="M66.59,0H57.13C47.39,6.75,43.53,19.7,42,27.71H81.68C80.18,19.7,76.32,6.75,66.59,0Z"/><path class="cls-1" d="M61.83,57.75a6.23,6.23,0,0,0,5.44-3.27,6.79,6.79,0,0,0,.37-5.84,6.19,6.19,0,0,0-11.62,0,6.79,6.79,0,0,0,.37,5.84A6.24,6.24,0,0,0,61.83,57.75Z"/><path class="cls-1" d="M113.74,189.9v-6.56h0l-.09-141.59h-6.91c-3.36,4.36-5.66,6.07-10.26,6.59H81.72V42.82a4.49,4.49,0,0,1,2.54-1.33V34.64H38.81v6.85a5,5,0,0,1,3.2,2v4.81H22c-4.61-.52-6.9-2.23-10.26-6.59H4.82c0,2,0,4.22-.1,6.59h0V176.49h6.5l73,0,1.48-6.79H11.22V64.09L26.87,80.46v82.46h58.8v-6.79h-.73a4.74,4.74,0,0,1-3.22-1.41V101.77a4.54,4.54,0,0,1,2.54-1.32V93.64h0a4.52,4.52,0,0,1-2.51-1.32V76.42a4.42,4.42,0,0,1,2.54-1.32V68.29A4.49,4.49,0,0,1,81.72,67V55h25.53V183.34h-79v6.52l16.73.27h68.75V190a.38.38,0,0,0,0-.1ZM11.74,55H42V66.25a5,5,0,0,1-3.2,2V75.1a4.91,4.91,0,0,1,3.2,2V105.5l-8.65-9V89l.84-.84,4.6-4.8ZM57.55,156.13H33.36V106.07l24.19,25.29Zm17.68,0H64V139.87l.84-.84,4.6-4.81-21-21.93V100.43H58.56v11.71h6.5V100.43H75.23Zm0-62.49H48.5V75.07H58.56V86.74h6.5V75.07H75.23Zm0-25.35H48.5V41.44H75.23Z"/><path class="cls-1" d="M271.9,98.8c-1.74-6.42-4.31-12.72-6.32-15.94-3-4.82-4.83-6.15-15.2-6.15H233v90c0,14.71,1.55,16.59,19,17.74V190H196.52v-5.51c17-1.15,18.55-2.87,18.55-17.74v-90H199.15c-10.27,0-13.24,1.21-16.47,6.59-2.3,3.69-4,8.55-6.41,15.54h-5.84c1.15-11.75,2.29-24,2.82-34.12h4.51c2.79,4.43,4.87,4.35,10.15,4.35h73.78c5.17,0,6.86-.81,9.72-4.35H276c0,8.58.78,22.5,1.71,33.52Z"/><path class="cls-1" d="M316.48,190H272.57v-5.41c11.38-1.11,12.46-2,12.46-14V131.53c0-11.74-.74-12.37-11.16-13.77v-4.85a114.16,114.16,0,0,0,27.53-7.52v20.39c6.85-10.24,14.46-19.87,23.45-19.87,6.89,0,11,4.35,11,9.33,0,5.15-3.62,9.44-6.9,11.23a3.91,3.91,0,0,1-5-.47c-2.86-2.75-5.12-4.82-8.44-4.82-3.7,0-10.18,5.17-14.14,14.22v35c0,12.08,1,12.94,15.08,14.12Z"/><path class="cls-1" d="M339.86,190v-5.41c11.42-1.15,12.69-2,12.69-14.79V131.81c0-11.7-.63-12.44-11.35-14.17v-4.76a134.91,134.91,0,0,0,27.71-7.31v64.19c0,12.65,1.2,13.64,13.06,14.79V190ZM359.64,88.58a10.78,10.78,0,0,1-10.49-10.46,10.63,10.63,0,0,1,10.68-10.76c5.61,0,10.18,4.51,10.18,10.76A10.49,10.49,0,0,1,359.64,88.58Z"/><path class="cls-1" d="M440,190v-5.41c10.25-1.11,11.26-2.32,11.26-15V138.66c0-13-5-21-16.22-21-7.12,0-13.81,4-19.44,8.93v43.79c0,12.57,1.05,13,11.42,14.12V190H386.27v-5.41c11.81-1.37,12.93-2,12.93-14.25V131.92c0-11.93-1.34-12.48-11.05-14.16v-5a119.5,119.5,0,0,0,27.48-7.38c0,4-.07,10-.07,14.46,3.72-2.6,7.78-5.39,12.52-8.45,5.27-3.35,9.87-5.45,15.27-5.45,14.91,0,24.24,11,24.24,29.18V170.4c0,12.44,1.12,13,11.57,14.15V190Z"/><path class="cls-1" d="M485.12,190v-5.41c11.42-1.15,12.68-2,12.68-14.79V131.81c0-11.7-.62-12.44-11.34-14.17v-4.76a135.08,135.08,0,0,0,27.71-7.31v64.19c0,12.65,1.2,13.64,13.06,14.79V190ZM504.9,88.58a10.79,10.79,0,0,1-10.5-10.46,10.64,10.64,0,0,1,10.68-10.76c5.61,0,10.19,4.51,10.19,10.76A10.5,10.5,0,0,1,504.9,88.58Z"/><path class="cls-1" d="M622.94,185.28c-4,.74-18.52,3-30.2,6.95V180.37c-3.34,2.08-8.15,4.72-11.49,6.8-6.91,4-11.53,5-13.73,5-15,0-35.26-14.64-35.26-41,0-25.79,22.66-45.3,48.77-45.3,2.37,0,8,.31,11.71,1.78V81.42c0-11.53-1.23-12-14.14-13.19V63.16c9.84-1.3,23.23-3.87,30.54-6.32V168.05c0,9.74,1.27,11,8.19,11.45l5.61.4Zm-30.2-62.46c-3.87-6.28-11.3-9.45-18.52-9.45-8.36,0-23.57,5.58-23.57,32.4,0,22.83,13.89,34.2,25.15,34.39,6.1,0,12.55-2.85,16.94-6.06Z"/><path class="cls-1" d="M686.64,192.19c-3.19,0-7.28-1.52-9.24-3.6a17.37,17.37,0,0,1-4.53-8.1c-7.38,4.95-16.49,11.7-21.85,11.7a23.1,23.1,0,0,1-23.16-23.08c0-9.24,4.92-14.93,15.08-18.53,11.28-3.94,25.36-8.71,29.49-12.12v-4.52c0-12.57-6.13-19.8-15.5-19.8a10.53,10.53,0,0,0-8.51,4.18c-2.07,2.67-3.28,6.7-4.92,12.12-1,3.35-2.9,4.65-5.86,4.65-3.77,0-8.68-3.85-8.68-8.45,0-2.74,2.38-5,6.2-7.68,5.93-4.2,16.75-10.82,27.32-13A26.9,26.9,0,0,1,678.74,111c6.77,5.58,9.62,12.17,9.62,21.81V168c0,8.63,3.12,11.17,6.41,11.17a14.63,14.63,0,0,0,6.52-1.95l1.9,5.41Zm-14.21-47c-4,2-11.88,5.55-16.06,7.44-6.83,3.13-10.94,6.63-10.94,13.41,0,10,7.4,14.29,13,14.29,4.43,0,10.39-2.47,14-6Z"/><path class="cls-1" d="M796.84,185.28c-4,.74-18.52,3-30.2,6.95V180.37c-3.34,2.08-8.15,4.72-11.49,6.8-6.91,4-11.53,5-13.73,5-15,0-35.26-14.64-35.26-41,0-25.79,22.66-45.3,48.77-45.3,2.37,0,8,.31,11.71,1.78V81.42c0-11.53-1.23-12-14.14-13.19V63.16c9.84-1.3,23.23-3.87,30.54-6.32V168.05c0,9.74,1.27,11,8.19,11.45l5.61.4Zm-30.2-62.46c-3.87-6.28-11.3-9.45-18.52-9.45-8.36,0-23.57,5.58-23.57,32.4,0,22.83,13.89,34.2,25.15,34.39,6.1,0,12.55-2.85,16.94-6.06Z"/><path class="cls-1" d="M50.27,267.92l8,2q-2.5,9.81-9,14.95A24.79,24.79,0,0,1,33.33,290q-9.72,0-15.81-4a24.69,24.69,0,0,1-9.27-11.46,40.92,40.92,0,0,1-3.18-16.12A35.36,35.36,0,0,1,8.66,242.1a24.55,24.55,0,0,1,10.21-10.62,29.86,29.86,0,0,1,14.58-3.63q9,0,15.18,4.59a23.84,23.84,0,0,1,8.57,12.92l-7.83,1.85q-2.1-6.57-6.07-9.56a16.15,16.15,0,0,0-10-3A19.41,19.41,0,0,0,21.7,238a17.56,17.56,0,0,0-6.54,8.92,35.85,35.85,0,0,0-1.89,11.55,36.68,36.68,0,0,0,2.24,13.39,16.62,16.62,0,0,0,7,8.55,19.46,19.46,0,0,0,10.21,2.83A17.15,17.15,0,0,0,44,279.37Q48.64,275.52,50.27,267.92Z"/><path class="cls-1" d="M75,237.36v-8.49h7.38v8.49ZM75,289V245.44h7.38V289Z"/><path class="cls-1" d="M130.1,289v-6.4A16,16,0,0,1,116.27,290a17.54,17.54,0,0,1-7.2-1.48,11.8,11.8,0,0,1-5-3.71,13.93,13.93,0,0,1-2.28-5.47,37.67,37.67,0,0,1-.45-6.9v-27h7.39V269.6a43.22,43.22,0,0,0,.45,7.8,7.7,7.7,0,0,0,3,4.57,9.12,9.12,0,0,0,5.58,1.66,12.09,12.09,0,0,0,6.23-1.7,9.45,9.45,0,0,0,4.13-4.63,23.47,23.47,0,0,0,1.21-8.52V245.44h7.38V289Z"/><path class="cls-1" d="M184.43,289v-5.5Q180.29,290,172.24,290a17.09,17.09,0,0,1-9.57-2.87,18.82,18.82,0,0,1-6.77-8,27.71,27.71,0,0,1-2.4-11.83,31,31,0,0,1,2.17-11.84,17.21,17.21,0,0,1,6.52-8.14,17.42,17.42,0,0,1,9.73-2.83,14.49,14.49,0,0,1,7,1.66,14.74,14.74,0,0,1,5,4.33V228.87h7.34V289Zm-23.34-21.74c0,5.57,1.17,9.75,3.53,12.51a10.62,10.62,0,0,0,8.32,4.14,10.45,10.45,0,0,0,8.23-4q3.38-4,3.38-12.08,0-8.94-3.44-13.12a10.61,10.61,0,0,0-8.5-4.19,10.22,10.22,0,0,0-8.22,4Q161.09,258.61,161.09,267.27Z"/><path class="cls-1" d="M239.21,283.63a27.55,27.55,0,0,1-7.9,4.93,23,23,0,0,1-8.14,1.43q-7.18,0-11-3.51a11.56,11.56,0,0,1-3.86-9,11.91,11.91,0,0,1,1.46-5.84,12,12,0,0,1,3.81-4.25,17.88,17.88,0,0,1,5.31-2.42,54.14,54.14,0,0,1,6.57-1.11,67.62,67.62,0,0,0,13.16-2.54c0-1,0-1.66,0-1.93q0-4.51-2.1-6.36c-1.88-1.66-4.69-2.5-8.41-2.5q-5.2,0-7.69,1.83c-1.65,1.21-2.88,3.37-3.67,6.46l-7.22-1a18,18,0,0,1,3.24-7.48,14.19,14.19,0,0,1,6.53-4.39,28.91,28.91,0,0,1,9.88-1.54,26.34,26.34,0,0,1,9.07,1.31,12,12,0,0,1,5.12,3.3,11.63,11.63,0,0,1,2.3,5,41.14,41.14,0,0,1,.37,6.81v9.84a105.66,105.66,0,0,0,.47,13A16.57,16.57,0,0,0,248.4,289h-7.71A15.62,15.62,0,0,1,239.21,283.63Zm-.62-16.49a53.51,53.51,0,0,1-12.06,2.79,27.92,27.92,0,0,0-6.44,1.48,6.53,6.53,0,0,0-2.91,2.4,6.55,6.55,0,0,0,1.21,8.43q2.24,2,6.54,2a15.14,15.14,0,0,0,7.59-1.87,11.45,11.45,0,0,0,4.88-5.11,17.66,17.66,0,0,0,1.19-7.38Z"/><path class="cls-1" d="M293.66,289v-5.5Q289.52,290,281.48,290a17.15,17.15,0,0,1-9.58-2.87,18.89,18.89,0,0,1-6.77-8,27.71,27.71,0,0,1-2.4-11.83,31,31,0,0,1,2.18-11.84,17.15,17.15,0,0,1,6.52-8.14,17.42,17.42,0,0,1,9.72-2.83,14.5,14.5,0,0,1,12,6V228.87h7.34V289Zm-23.34-21.74c0,5.57,1.18,9.75,3.53,12.51a10.64,10.64,0,0,0,8.33,4.14,10.43,10.43,0,0,0,8.22-4q3.39-4,3.39-12.08,0-8.94-3.45-13.12a10.61,10.61,0,0,0-8.49-4.19,10.22,10.22,0,0,0-8.22,4Q270.32,258.61,270.32,267.27Z"/><path class="cls-1" d="M379.52,289v-5.5Q375.38,290,367.34,290a17.1,17.1,0,0,1-9.58-2.87,18.89,18.89,0,0,1-6.77-8,27.71,27.71,0,0,1-2.4-11.83,31,31,0,0,1,2.17-11.84,17.17,17.17,0,0,1,6.53-8.14,17.37,17.37,0,0,1,9.72-2.83,14.49,14.49,0,0,1,7,1.66,14.74,14.74,0,0,1,5,4.33V228.87h7.34V289Zm-23.34-21.74c0,5.57,1.17,9.75,3.53,12.51a10.62,10.62,0,0,0,8.32,4.14,10.45,10.45,0,0,0,8.23-4q3.38-4,3.38-12.08,0-8.94-3.44-13.12a10.61,10.61,0,0,0-8.5-4.19,10.22,10.22,0,0,0-8.22,4Q356.18,258.61,356.18,267.27Z"/><path class="cls-1" d="M435.7,275l7.63.94a18.67,18.67,0,0,1-6.69,10.38Q431.75,290,424.17,290q-9.56,0-15.16-5.88t-5.6-16.52q0-11,5.66-17.06a19.17,19.17,0,0,1,14.69-6.07A18.6,18.6,0,0,1,438,250.41q5.55,5.94,5.54,16.73c0,.44,0,1.1,0,2H411q.42,7.18,4.06,11a12.11,12.11,0,0,0,9.11,3.81,11.29,11.29,0,0,0,6.93-2.13A14.17,14.17,0,0,0,435.7,275ZM411.45,263h24.33q-.5-5.49-2.79-8.24a11.3,11.3,0,0,0-9.15-4.27,11.72,11.72,0,0,0-8.55,3.4A13.51,13.51,0,0,0,411.45,263Z"/><path class="cls-1" d="M492.84,289V228.87h43.48V236H500.79v18.42h33.27v7.05H500.79v20.47h36.92V289Z"/><path class="cls-1" d="M555.66,289V245.44h6.64v6.2q4.8-7.19,13.87-7.18a18.26,18.26,0,0,1,7.24,1.41,11.44,11.44,0,0,1,4.94,3.72,14.35,14.35,0,0,1,2.3,5.45,42.69,42.69,0,0,1,.41,7.18V289h-7.39v-26.5a19.76,19.76,0,0,0-.86-6.75,7.09,7.09,0,0,0-3-3.57,9.73,9.73,0,0,0-5.15-1.33,12,12,0,0,0-8.14,3q-3.44,3-3.43,11.37V289Z"/><path class="cls-1" d="M638.7,273.05,646,274a18.83,18.83,0,0,1-6.09,11.76,17.75,17.75,0,0,1-12,4.24q-8.94,0-14.37-5.84T608,267.39A30.34,30.34,0,0,1,610.36,255a16.25,16.25,0,0,1,7.12-7.93,21,21,0,0,1,10.39-2.65q7.1,0,11.61,3.59a16.46,16.46,0,0,1,5.79,10.19l-7.18,1.11a12,12,0,0,0-3.63-6.61,9.44,9.44,0,0,0-6.3-2.21,11.43,11.43,0,0,0-9.06,4q-3.5,4-3.49,12.65T619,279.94a11,11,0,0,0,8.78,4,10.33,10.33,0,0,0,7.26-2.67C637,279.48,638.18,276.74,638.7,273.05Z"/><path class="cls-1" d="M688.73,289v-6.4A16,16,0,0,1,674.9,290a17.54,17.54,0,0,1-7.2-1.48,11.86,11.86,0,0,1-5-3.71,13.93,13.93,0,0,1-2.28-5.47,37.67,37.67,0,0,1-.45-6.9v-27h7.39V269.6a43.22,43.22,0,0,0,.45,7.8A7.7,7.7,0,0,0,670.8,282a9.16,9.16,0,0,0,5.58,1.66,12.13,12.13,0,0,0,6.24-1.7,9.47,9.47,0,0,0,4.12-4.63,23.47,23.47,0,0,0,1.21-8.52V245.44h7.38V289Z"/><path class="cls-1" d="M744.62,275l7.63.94a18.67,18.67,0,0,1-6.69,10.38Q740.69,290,733.09,290q-9.55,0-15.16-5.88t-5.6-16.52q0-11,5.66-17.06a19.17,19.17,0,0,1,14.69-6.07A18.6,18.6,0,0,1,747,250.41q5.55,5.94,5.54,16.73c0,.44,0,1.1,0,2H720q.42,7.18,4.06,11a12.11,12.11,0,0,0,9.11,3.81,11.29,11.29,0,0,0,6.93-2.13A14.17,14.17,0,0,0,744.62,275ZM720.37,263H744.7q-.5-5.49-2.79-8.24a11.3,11.3,0,0,0-9.15-4.27,11.72,11.72,0,0,0-8.55,3.4A13.51,13.51,0,0,0,720.37,263Z"/><path class="cls-1" d="M769.41,289V245.44h6.65v6.2q4.8-7.19,13.86-7.18a18.23,18.23,0,0,1,7.24,1.41,11.53,11.53,0,0,1,5,3.72A14.19,14.19,0,0,1,804.4,255a41.62,41.62,0,0,1,.41,7.18V289h-7.38v-26.5a20,20,0,0,0-.86-6.75,7.16,7.16,0,0,0-3.06-3.57,9.7,9.7,0,0,0-5.15-1.33,12,12,0,0,0-8.14,3q-3.42,3-3.42,11.37V289Z"/><path class="cls-1" d="M840.15,282.4l1.07,6.52a27.27,27.27,0,0,1-5.58.66,12.64,12.64,0,0,1-6.24-1.27,7.14,7.14,0,0,1-3.11-3.34c-.6-1.38-.91-4.29-.91-8.72V251.19H820v-5.75h5.41V234.66l7.35-4.43v15.21h7.42v5.75h-7.42v25.47a12.82,12.82,0,0,0,.39,4.06,3.1,3.1,0,0,0,1.27,1.44,5,5,0,0,0,2.52.53A24.34,24.34,0,0,0,840.15,282.4Z"/><path class="cls-1" d="M855.19,289V245.44h6.64v6.61c1.7-3.09,3.26-5.13,4.7-6.11a8.14,8.14,0,0,1,4.74-1.48,14.36,14.36,0,0,1,7.58,2.38l-2.54,6.85a10.52,10.52,0,0,0-5.41-1.6,7.07,7.07,0,0,0-4.35,1.45,7.92,7.92,0,0,0-2.75,4,28.71,28.71,0,0,0-1.23,8.61V289Z"/><path class="cls-1" d="M888.39,267.23q0-12.1,6.73-17.93a20.25,20.25,0,0,1,13.7-4.84,19.55,19.55,0,0,1,14.69,5.89q5.7,5.88,5.7,16.26,0,8.42-2.53,13.23a17.9,17.9,0,0,1-7.34,7.49A21.44,21.44,0,0,1,908.82,290q-9.15,0-14.79-5.86T888.39,267.23Zm7.59,0q0,8.36,3.65,12.53a12.17,12.17,0,0,0,18.34,0q3.64-4.19,3.65-12.76,0-8.09-3.67-12.24a12.17,12.17,0,0,0-18.32,0Q896,258.87,896,267.23Z"/><path class="cls-1" d="M942.81,276l7.3-1.14a10.21,10.21,0,0,0,3.42,6.72q2.81,2.34,7.86,2.34t7.54-2.07A6.17,6.17,0,0,0,971.4,277a4.49,4.49,0,0,0-2.18-3.94q-1.51-1-7.55-2.5A69.34,69.34,0,0,1,950.41,267,10.75,10.75,0,0,1,944,257a11.18,11.18,0,0,1,1.33-5.39,12,12,0,0,1,3.63-4.13,15.41,15.41,0,0,1,4.7-2.15,22.19,22.19,0,0,1,6.37-.88,25.14,25.14,0,0,1,9,1.48,12.17,12.17,0,0,1,5.72,4,15.56,15.56,0,0,1,2.54,6.74l-7.22,1a7.84,7.84,0,0,0-2.85-5.25,10.4,10.4,0,0,0-6.66-1.89q-5.08,0-7.26,1.68a4.91,4.91,0,0,0-2.18,3.94,4,4,0,0,0,.91,2.58,6.42,6.42,0,0,0,2.83,2c.73.28,2.91.91,6.52,1.89A89.94,89.94,0,0,1,972.36,266a11.1,11.1,0,0,1,4.86,3.87,10.8,10.8,0,0,1,1.76,6.32,12.34,12.34,0,0,1-2.15,7,13.89,13.89,0,0,1-6.21,5,22.62,22.62,0,0,1-9.19,1.78q-8.49,0-12.94-3.53T942.81,276Z"/><path class="cls-1" d="M851.56,115.14a87.2,87.2,0,0,0-12.62,3v-5.29c-1.46.89-3.58,2-5,2.92-3.26,1.88-5.46,2.37-6.43,2.37-6.51,0-15.14-6.52-15.14-17.91s9.93-19.78,21.08-19.78a16.36,16.36,0,0,1,5.53.9v-12c0-5.21-.57-5.37-6.35-5.86V61.43a80.93,80.93,0,0,0,12.78-2.77v49.08c0,4.23.57,4.8,3.58,5l2.61.17ZM838.94,87.8c-1.87-2.85-5.37-4.15-8.54-4.15-3.91,0-10.83,2.6-10.83,14.32,0,9.85,6.11,15.06,11.32,15.14a14.63,14.63,0,0,0,8.05-2.93Z"/><path class="cls-1" d="M883,110.26c-5.21,6.51-10.91,7.9-13.51,7.9-9.93,0-16-8.14-16-17.5a20.94,20.94,0,0,1,5.29-14.25,16.73,16.73,0,0,1,12.13-5.94,12.7,12.7,0,0,1,12.45,12.62c-.08,1.62-.32,2.36-1.62,2.68-1.63.33-12,1.06-21.73,1.39-.25,10.9,6.43,15.38,12.2,15.38,3.34,0,6.43-1.38,9.45-4.15Zm-14-26.7c-3.75,0-7.41,3.5-8.55,10.1,4.56,0,9.12,0,13.92-.25,1.47,0,1.95-.4,1.95-1.63C876.38,87.47,873.54,83.56,869,83.56Z"/><path class="cls-1" d="M861.73,177.71A104.46,104.46,0,0,1,857.26,190a74.12,74.12,0,0,1-14.9,1.95C822.91,192,813,179,813,164.77c0-16.61,12.61-28.08,30.85-28.08,7,0,12.69,1.46,15.38,1.87.32,3.66.89,8.54,1.55,12.61l-2.53.57c-1.63-5.45-3.58-8.79-7.73-10.5A22.41,22.41,0,0,0,842,139.7c-13.43,0-20.51,9.93-20.51,23.36,0,15.7,8.14,25.8,21.33,25.8,8.3,0,12.37-3.83,16.52-12Z"/><path class="cls-1" d="M904.63,188.86a93.8,93.8,0,0,0-12.45,2.85v-6.27c-4.4,3.66-8,6.27-12.46,6.27-5.45,0-10.17-3.34-10.17-12.21V163.71c0-4.4-.65-4.89-2.69-5.29l-2.28-.41v-2.12a109.21,109.21,0,0,0,11.64-1.46c-.24,2.6-.24,6.51-.24,11.88v11.07c0,7.16,3.74,9.2,7.41,9.2a12.84,12.84,0,0,0,8.79-3.91v-19c0-4.4-1-5-3.75-5.37l-2.6-.33v-2.12a116.2,116.2,0,0,0,12.78-1.46V181.7c0,4.06.65,4.63,3.74,4.8l2.28.08Z"/><path class="cls-1" d="M922.94,154.84a9.71,9.71,0,0,1,3.59-.82c8.7,0,16,7.57,16,17.26,0,11-9.44,20.51-20.1,20.43a30.32,30.32,0,0,1-12.54-2.93V143c0-5-.24-5.53-5.45-5.94V135a67.15,67.15,0,0,0,11.88-2.77v25.47Zm-6.59,26.45a7,7,0,0,0,.41,2.85c1,2,4.15,4.39,8.06,4.39,7,0,10.5-6,10.5-15.22s-5.62-14.73-12.38-14.73a15.65,15.65,0,0,0-6.59,1.55Z"/><path class="cls-1" d="M972,191.71a6,6,0,0,1-3.83-1.55,7.58,7.58,0,0,1-2-3.66c-3.26,2.19-7.25,5.21-9.77,5.21a10,10,0,0,1-9.93-10c0-4,2.2-6.6,6.68-8.14,5-1.71,11.06-3.83,12.85-5.29v-1.63c0-5.78-2.93-9.12-7.16-9.12a4.73,4.73,0,0,0-3.82,1.87c-.9,1.14-1.47,2.93-2.2,5.29a2.27,2.27,0,0,1-2.36,1.88A3.91,3.91,0,0,1,947,163c0-1.14,1.06-2.12,2.68-3.26C952,158,956.72,155,961.36,154a11.21,11.21,0,0,1,6.84,2.2c2.85,2.44,4.15,5.21,4.15,9.44v15.71c0,3.74,1.39,4.88,2.85,4.88a6.44,6.44,0,0,0,2.93-.89l.81,2.28Zm-5.95-20.6c-1.79.9-5.69,2.61-7.56,3.42-3.1,1.39-5,2.93-5,5.94a5.92,5.92,0,0,0,5.86,6.27,10.76,10.76,0,0,0,6.67-2.93Z"/><rect class="cls-1" x="4.79" y="206.2" width="974.34" height="6.49"/><polygon class="cls-1" points="118.48 189.9 118.48 190.19 111.49 190.19 111.49 41.75 118.39 41.75 118.48 183.34 118.48 189.9"/><polygon class="cls-1" points="6.99 176.49 6.99 176.5 0 176.5 0 41.75 6.91 41.75 6.98 169.71 6.99 176.49"/><polygon class="cls-1" points="11.22 169.72 11.22 176.5 0 176.5 0 169.69 4.72 169.7 6.98 169.71 11.22 169.72"/></g></g></svg>